<svg width="256" height="90" viewBox="0 0 256 90" fill="none" xmlns="http://www.w3.org/2000/svg">
<path fill-rule="evenodd" clip-rule="evenodd" d="M0 0L256 0.00750626V89.9625L89.4411 90H0V0ZM83.548 5.92994H5.89312V84.0701H83.548V5.92994ZM250.129 5.91493H89.4411V84.055H250.129V5.91493ZM168.804 47.6497V62.0242C168.804 64.1935 169.304 65.7698 170.289 66.7531C171.288 67.7365 172.512 68.2319 173.981 68.2319C175.443 68.2319 176.674 67.7365 177.666 66.7531C178.658 65.7698 179.151 64.1935 179.151 62.0242V47.6497H184.044V62.1293C184.044 65.5596 183.067 68.2018 181.105 70.0634C179.143 71.9324 176.771 72.8707 173.981 72.8707C171.161 72.8707 168.782 71.9324 166.835 70.0634C164.888 68.2018 163.911 65.5596 163.911 62.1293V47.6497H168.804ZM199.323 47.3945C201.031 47.3945 202.717 47.7698 204.396 48.5204C206.074 49.2711 207.573 50.2769 208.901 51.5379L205.709 54.4954C204.806 53.7598 203.754 53.1668 202.538 52.7089C201.315 52.2585 200.248 52.0334 199.323 52.0334H199.047C198.003 52.0334 197.033 52.251 196.123 52.6939C195.213 53.1368 194.758 53.8424 194.758 54.8182C194.758 55.5763 195.116 56.1393 195.832 56.4921C196.556 56.8524 197.578 57.1151 198.898 57.2802L200.89 57.4979C203.657 57.8282 205.813 58.5863 207.357 59.7648C208.909 60.9358 209.685 62.7373 209.685 65.1618C209.685 67.4962 208.775 69.3578 206.969 70.7465C205.157 72.1351 202.844 72.8482 200.039 72.8707H199.823C197.488 72.8707 195.414 72.3978 193.602 71.4596C191.789 70.5213 190.357 69.3128 189.297 67.834L192.483 64.8841C193.124 65.7848 194.079 66.5655 195.355 67.2335C196.63 67.9016 198.122 68.2319 199.823 68.2319H200.039C201.479 68.2093 202.628 67.9241 203.493 67.3762C204.358 66.8282 204.791 66.0926 204.791 65.1618C204.791 64.1635 204.396 63.4429 203.62 63.0075C202.837 62.5646 201.703 62.2569 200.211 62.0617L198.264 61.844C192.662 61.176 189.864 58.9016 189.864 54.9983C189.864 52.7089 190.73 50.8849 192.468 49.5263C194.206 48.1526 196.391 47.447 199.047 47.3945H199.323ZM145.481 47.3983C148.979 47.3983 151.963 48.6443 154.425 51.1214C156.902 53.6134 158.14 56.6159 158.14 60.1364C158.14 63.6493 156.902 66.6593 154.425 69.1439C151.963 71.6209 148.979 72.867 145.481 72.867C141.982 72.867 139.006 71.6209 136.544 69.1439C134.083 66.6593 132.859 63.6493 132.859 60.1364C132.859 56.6159 134.083 53.6134 136.544 51.1214C139.006 48.6443 141.982 47.3983 145.481 47.3983ZM112.543 47.6497V57.7456H122.151V47.6497H127.044V72.623H122.151V62.3845H112.543V72.623H107.649V47.6497H112.543ZM231.773 47.6467V52.2856H220.143V57.7426H230.885V62.3815H220.143V67.9812H231.773V72.62H215.249V47.6467H231.773ZM72.4115 17.729V23.6364H23.5061V66.332H66.5408V47.9417H44.7288V42.0343H72.4115V72.2394H17.6353V17.729H72.4115ZM145.481 52.0371C143.28 52.0371 141.445 52.7952 139.968 54.319C138.484 55.8428 137.753 57.7794 137.753 60.1364C137.753 62.5083 138.484 64.46 139.968 65.9687C141.445 67.4775 143.28 68.2356 145.481 68.2356C147.704 68.2356 149.546 67.4775 151.031 65.9687C152.5 64.46 153.246 62.5083 153.246 60.1364C153.246 57.7794 152.5 55.8428 151.009 54.319C149.524 52.7952 147.682 52.0371 145.481 52.0371ZM118.607 17.139C122.292 17.139 125.41 18.5202 127.969 21.275L124.776 24.2324C123.142 22.5886 121.091 21.7704 118.607 21.7704C116.406 21.7704 114.571 22.5285 113.094 24.0373C111.61 25.546 110.879 27.4977 110.879 29.8696C110.879 32.2266 111.61 34.1707 113.094 35.687C114.571 37.2108 116.406 37.9764 118.607 37.9764C120.285 37.9764 121.77 37.511 123.075 36.5802V32.2641H118.532V28.556H127.969V38.4643C125.41 41.2266 122.292 42.6078 118.607 42.6078C115.108 42.6078 112.132 41.3617 109.67 38.8771C107.208 36.4001 105.985 33.3901 105.985 29.8696C105.985 26.3567 107.208 23.3467 109.67 20.8621C112.132 18.3776 115.108 17.139 118.607 17.139ZM199.328 17.0992C201.029 17.0992 202.722 17.4746 204.393 18.2252C206.079 18.9758 207.579 19.9741 208.899 21.2427L205.706 24.2002C204.811 23.4646 203.752 22.8641 202.536 22.4137C201.32 21.9633 200.246 21.7381 199.328 21.7381H199.045C198.001 21.7381 197.031 21.9558 196.121 22.3987C195.211 22.834 194.756 23.5471 194.756 24.5229C194.756 25.2811 195.114 25.844 195.837 26.1968C196.561 26.5571 197.575 26.8199 198.903 26.985L200.887 27.1952C203.655 27.5254 205.811 28.2836 207.355 29.4621C208.907 30.633 209.682 32.442 209.682 34.8666C209.682 37.1935 208.78 39.0626 206.967 40.4437C205.162 41.8399 202.849 42.5455 200.037 42.5755H199.821C197.486 42.5755 195.412 42.1026 193.599 41.1643C191.794 40.2185 190.362 39.0175 189.295 37.5388L192.488 34.5813C193.122 35.4896 194.084 36.2702 195.36 36.9308C196.628 37.5988 198.127 37.9366 199.821 37.9366H200.037C201.484 37.9141 202.626 37.6214 203.491 37.0809C204.356 36.5329 204.789 35.7898 204.789 34.8666C204.789 33.8682 204.393 33.1476 203.618 32.7048C202.834 32.2694 201.708 31.9541 200.216 31.759L198.262 31.5488C192.659 30.8807 189.862 28.5988 189.862 24.6956C189.862 22.4137 190.727 20.5897 192.465 19.2235C194.204 17.8574 196.397 17.1518 199.045 17.0992H199.328ZM140.324 17.3515V31.7259C140.324 33.8952 140.824 35.4716 141.809 36.4549C142.808 37.4382 144.032 37.9336 145.501 37.9336C146.963 37.9336 148.194 37.4382 149.186 36.4549C150.178 35.4716 150.671 33.8952 150.671 31.7259V17.3515H155.564V31.831C155.564 35.2614 154.587 37.9036 152.625 39.7651C150.663 41.6342 148.291 42.5725 145.501 42.5725C142.681 42.5725 140.302 41.6342 138.355 39.7651C136.408 37.9036 135.431 35.2614 135.431 31.831V17.3515H140.324ZM182.241 17.3515V21.9903H170.611V27.4474H181.353V32.0862H170.611V37.6859H182.241V42.3248H165.717V17.3515H182.241ZM232.766 17.3485V21.9873H225.956V42.3218H221.062V21.9873H214.259V17.3485H232.766Z" fill="white"/>
</svg>
