<svg width="21" height="15" viewBox="0 0 21 15" fill="none" xmlns="http://www.w3.org/2000/svg">
<path d="M20.4529 3.19432C20.3537 3.08587 20.2178 3.01797 20.0715 3.0036L4.55306 2.78906L4.12398 1.47796C3.8217 0.601505 3.00095 0.00980987 2.0739 0H0.47676C0.213445 0 0 0.213445 0 0.47676C0 0.740075 0.213445 0.95352 0.47676 0.95352H2.0739C2.59227 0.964972 3.04873 1.29782 3.21814 1.78786L6.24556 10.9178L6.0072 11.4661C5.74133 12.1516 5.82118 12.9233 6.22174 13.5399C6.61847 14.1456 7.28591 14.5194 8.0096 14.5411H17.2826C17.5459 14.5411 17.7593 14.3277 17.7593 14.0644C17.7593 13.8011 17.5459 13.5876 17.2826 13.5876H8.00955C7.60087 13.5774 7.22467 13.3624 7.00835 13.0155C6.79445 12.6728 6.75051 12.2507 6.88918 11.8713L7.0799 11.4422L17.1157 10.3933C18.218 10.2719 19.1248 9.47013 19.3803 8.39091L20.5245 3.59949C20.5761 3.46152 20.5487 3.30634 20.4529 3.19432ZM18.4506 8.17641C18.2958 8.87113 17.706 9.38358 16.9965 9.43983L7.0799 10.4649L4.86296 3.74258L19.4756 3.95712L18.4506 8.17641Z" fill="#181D19"/>
</svg>
